<svg width="20" height="20" viewBox="0 0 20 20" fill="none" xmlns="http://www.w3.org/2000/svg">
<path d="M19.6986 12.4193C18.363 17.7765 12.9371 21.0368 7.57924 19.7009C2.2236 18.3653 -1.03673 12.939 0.299514 7.5821C1.63451 2.22427 7.06047 -1.03637 12.4167 0.299245C17.7742 1.63489 21.0343 7.06178 19.6986 12.4193Z" fill="#F7931A"/>
<path d="M6.71021 11.6842C6.65584 11.8192 6.51804 12.0217 6.2074 11.9448C6.21836 11.9607 5.40991 11.7457 5.40991 11.7457L4.86523 13.0016L6.29303 13.3576C6.55865 13.4242 6.81898 13.4938 7.07523 13.5595L6.62115 15.3826L7.71709 15.6561L8.16678 13.8523C8.45741 13.9311 8.74889 14.0067 9.04115 14.0792L8.59302 15.8745L9.69023 16.1479L10.1443 14.3282C12.0152 14.6823 13.4221 14.5395 14.0143 12.8473C14.4915 11.4848 13.9906 10.6988 13.0062 10.1863C13.7231 10.021 14.263 9.54945 14.4071 8.57538C14.6062 7.24475 13.593 6.52944 12.2077 6.05224L12.6571 4.24972L11.5599 3.97628L11.1224 5.73128C10.834 5.65941 10.5377 5.59159 10.2433 5.5244L10.6839 3.75781L9.58738 3.48438L9.1377 5.28625C8.89893 5.23188 8.66458 5.17811 8.43707 5.12156L8.43831 5.11592L6.92517 4.73811L6.63328 5.90999C6.63328 5.90999 7.44736 6.09656 7.43016 6.10812C7.87455 6.21906 7.95485 6.5131 7.94143 6.74626L6.71021 11.6842ZM11.9002 12.0907C11.5612 13.4532 9.2671 12.7166 8.52334 12.5319L9.12585 10.1166C9.86958 10.3023 12.2546 10.6698 11.9002 12.0907ZM12.2396 8.55571C11.9302 9.79509 10.0208 9.16541 9.40146 9.01103L9.94772 6.82038C10.5671 6.97475 12.5618 7.26288 12.2396 8.55571Z" fill="white"/>
</svg>
