<svg width="26" height="26" viewBox="0 0 26 26" fill="none" xmlns="http://www.w3.org/2000/svg">
<path d="M18.2182 24.4104C18.2182 24.4104 17.0336 26.0532 13.8591 25.4882C10.6847 24.9232 10.6847 21.6973 10.6847 21.6973V4.86647L0.00181861 4.73551C0.00181861 4.73551 -0.243682 0.722135 4.97009 0.72182C10.1839 0.721504 25.2553 0.72182 25.2553 0.72182C25.2553 0.72182 25.5806 4.86647 20.2695 4.86647C14.9584 4.86647 11.736 4.86647 11.736 4.86647C11.736 4.86647 15.3062 6.71942 15.3062 8.99369C15.3062 11.268 15.3062 14.7481 15.3062 20.0798C15.3062 25.4115 18.2182 24.4104 18.2182 24.4104Z" fill="#0DB1A0"/>
</svg>
